Coordinates
version=1
nRows=6
nColumns=36
inDegrees=yes

Units are S.I. units (second, meters, Newtons, ...)
If the header above contains a line with 'inDegrees', this indicates whether rotational values are in degrees (yes) or radians (no).

endheader
time	pelvis_tilt	pelvis_list	pelvis_rotation	pelvis_tx	pelvis_ty	pelvis_tz	hip_flexion_r	hip_adduction_r	hip_rotation_r	knee_angle_r	knee_angle_r_beta	ankle_angle_r	subtalar_angle_r	mtp_angle_r	hip_flexion_l	hip_adduction_l	hip_rotation_l	knee_angle_l	knee_angle_l_beta	ankle_angle_l	subtalar_angle_l	mtp_angle_l	lumbar_extension	lumbar_bending	lumbar_rotation	arm_flex_r	arm_add_r	arm_rot_r	elbow_flex_r	pro_sup_r	arm_flex_l	arm_add_l	arm_rot_l	elbow_flex_l	pro_sup_l
      3.00833330	     -3.56858206	     -0.76622482	      1.95221860	      0.48183530	      1.31521727	     -0.08420234	     11.18546691	     -6.69670444	    -17.76989251	      4.09351937	      0.07144539	    -32.58815729	      2.56548677	     -7.49999987	     12.53373985	     -4.27437949	     -6.75378969	      5.32258478	      0.09289663	    -29.57539111	     -1.25672910	     -7.49999987	    -22.60166553	      3.96297061	      4.96882439	     33.36382942	    -25.57641620	     -7.29348953	     48.85761706	     69.07025122	     16.13605940	    -26.59000870	    -15.51574795	     43.77395716	     53.02753301
      3.01250000	     -3.40137640	     -0.76637712	      1.71592010	      0.48732466	      1.30985224	     -0.08399150	     11.01276129	     -6.61400980	    -17.94055509	      4.10117692	      0.07157904	    -32.52627220	      2.71165517	     -7.49999987	     12.19000365	     -4.26441008	     -6.49028711	      5.08698228	      0.08878459	    -29.44563465	     -1.26531982	     -7.49999987	    -22.73226021	      3.89422080	      5.00913608	     32.17240799	    -24.97636042	     -7.52508172	     48.84684165	     69.32238726	     15.07993066	    -25.89478937	    -15.90266172	     43.33054771	     53.50216485
      3.01666670	     -3.35318308	     -0.78816683	      1.71292603	      0.48711897	      1.30435251	     -0.07793162	     10.90826204	     -6.34995651	    -17.69679724	      3.94771359	      0.06890060	    -32.58867794	      2.88833499	     -7.49999987	     12.06096716	     -4.36748285	     -6.40883179	      4.82018677	      0.08412813	    -29.84221179	     -1.26501019	     -7.49999987	    -22.87269244	      3.68951723	      5.00168029	     30.69996268	    -24.05703751	     -8.09369176	     48.92269139	     69.40296918	     14.46513997	    -25.37996605	    -16.13335044	     42.83445989	     54.10781937
      3.02083330	     -3.26967688	     -0.85716848	      1.86480538	      0.48583640	      1.29322119	     -0.07755499	     10.78987870	     -6.07276528	    -17.41026816	      3.72592169	      0.06502960	    -32.10076607	      2.84800704	     -7.49999987	     12.06248447	     -4.48207317	     -6.41460132	      4.72351974	      0.08244097	    -30.08676154	     -1.57444972	     -7.49999987	    -23.13999783	      3.60493370	      5.06526064	     29.47286961	    -23.48450001	     -8.68932263	     49.00294842	     69.33099135	     14.09012148	    -24.90802151	    -15.97379843	     42.53272151	     54.84089906
      3.02500000	     -3.18113706	     -0.94105583	      2.03746545	      0.48669912	      1.28241612	     -0.07739231	     10.68906034	     -5.81108666	    -16.93939825	      3.59073349	      0.06267012	    -31.59944377	      2.87850371	     -7.49999987	     12.12009878	     -4.61644857	     -6.48695106	      4.75043517	      0.08291073	    -30.23676951	     -1.50239121	     -7.49999987	    -23.57026991	      3.50140474	      5.02402259	     28.37873666	    -22.93103764	     -9.01228920	     49.24525146	     69.24600102	     13.64805916	    -24.57718958	    -15.75755797	     42.61185759	     55.19778439
      3.02916670	     -3.07364429	     -0.93709306	      2.19033917	      0.49336126	      1.27368939	     -0.08352039	     10.47356786	     -5.81370884	    -16.77390241	      3.54484328	      0.06186919	    -31.13688225	      2.95365296	     -7.49999987	     11.98542771	     -4.47193494	     -6.54954894	      4.73427587	      0.08262870	    -30.28573268	     -1.59910102	     -7.49999987	    -23.76151416	      3.48156390	      5.58438107	     26.37884807	    -22.71671588	    -11.42340293	     50.04702397	     72.39903152	     13.79599653	    -23.98907857	    -14.15067098	     41.40169875	     56.47058567
